:SAMPLES-PER-SECOND 24
:FULLY-SPECIFIED
:DEGREES
607
root  7.22599 39.2723 43.9558 -7.47705 -13.5668 -17.9235
RightUpLeg  -34.827 -5.16817 -18.0202
RightLeg  106.36 1.1964 -2.52219
RightFoot  10.3252 -0.126334 1.03204
RightToes  -2.08645e-008 3.77894e-005 6.81332e-007
Spine  9.71186 4.33905 11.4645
Spine1  -0.180417 4.0808 6.39059
HEad  -15.8606 12.4895 -0.715445
LeftShoulder1  5.00099 -10.1508 -30.6212
LeftArm  -7.23564 -11.4897 -11.1499
LeftForeArm  30.6683 -71.0261 -31.4478
LeftHand  -1.146 -2.97962 16.0653
RightShoulder  4.34204 7.22607 34.5698
RightArm  -15.4945 -35.5094 18.7832
RightForeArm  43.3743 -4.90586 5.68538
RightHand  -1.08827 10.1755 -8.48442
LeftUpLeg  -4.96517 -21.7824 5.66772
LeftLeg  27.5486 11.3878 6.71216
LeftFoot  -5.56298 -0.299428 6.58936
LeftToes  1.24767e-006 1.47042e-008 1.32732e-009
608
root  6.19674 39.4866 43.6076 -16.6104 -1.54559 -24.9639
RightUpLeg  -43.5641 -6.77715 -21.9179
RightLeg  110.549 1.01083 -1.43893
RightFoot  5.94081 0.0811158 -0.2699
RightToes  -2.08645e-008 3.77894e-005 6.81332e-007
Spine  18.5646 0.326464 7.76427
Spine1  -1.48852 -1.44121 19.5467
HEad  -17.2068 11.4164 -0.352183
LeftShoulder1  4.48979 -9.71898 -27.8952
LeftArm  -4.66725 -33.0203 -10.9585
LeftForeArm  29.8368 -68.578 -26.6637
LeftHand  -1.12384 -4.42352 13.5337
RightShoulder  4.39631 7.36716 34.5431
RightArm  -15.0555 -40.8773 18.4387
RightForeArm  43.5403 -5.39953 5.74505
RightHand  -1.16025 9.77344 -9.23424
LeftUpLeg  0.0200377 -25.8696 10.6265
LeftLeg  30.0185 5.51043 3.75896
LeftFoot  -5.58143 -0.34397 7.49025
LeftToes  1.24767e-006 1.47042e-008 1.32732e-009
609
root  4.84 39.722 43.2497 -25.8713 8.67322 -32.8274
RightUpLeg  -51.1195 -11.6661 -25.9046
RightLeg  107.236 2.65246 -6.43691
RightFoot  0.325274 0.0926096 -0.878617
RightToes  -2.08645e-008 3.77894e-005 6.81332e-007
Spine  26.0457 -2.88587 2.84821
Spine1  -0.810337 -7.40815 31.9404
HEad  -19.4054 12.9572 0.458844
LeftShoulder1  3.87435 -9.10186 -24.5507
LeftArm  -3.52732 -54.013 -10.3698
LeftForeArm  29.0833 -65.7995 -22.6675
LeftHand  -1.14936 -6.24683 11.7645
RightShoulder  4.42106 7.43074 34.5338
RightArm  -15.8447 -44.8743 20.2512
RightForeArm  42.8715 -5.45452 5.7275
RightHand  -0.808859 10.2885 -6.38182
LeftUpLeg  0.671231 -23.6233 17.8086
LeftLeg  32.3576 3.74696 2.95849
LeftFoot  -4.49096 -0.414264 7.37851
LeftToes  1.24767e-006 1.47042e-008 1.32732e-009
610
root  3.48883 39.8708 43.0699 -33.2646 14.6545 -39.2302
RightUpLeg  -58.7982 -18.4936 -27.9807
RightLeg  91.7397 1.2771 -17.1527
RightFoot  -1.79624 -0.000293219 -0.129564
RightToes  -2.08645e-008 3.77894e-005 6.81332e-007
Spine  30.9432 -4.77848 0.260737
Spine1  0.268972 -11.2967 37.437
HEad  -21.2797 14.5947 0.683353
LeftShoulder1  3.1604 -7.94387 -21.2383
LeftArm  0.130013 -72.2523 -15.9318
LeftForeArm  27.8555 -61.0483 -17.9238
LeftHand  -1.1241 -8.20863 9.94509
RightShoulder  4.47742 7.44656 34.9849
RightArm  -16.4168 -49.4201 22.1214
RightForeArm  46.146 -5.55572 5.58221
RightHand  -0.570727 10.8464 -4.48191
LeftUpLeg  1.33206 -14.5989 23.7627
LeftLeg  29.5126 11.0094 6.95164
LeftFoot  -4.5702 -0.454096 8.01123
LeftToes  1.24767e-006 1.47042e-008 1.32732e-009
611
root  2.34032 39.5511 43.1002 -37.7214 17.8074 -43.043
RightUpLeg  -62.4067 -23.7632 -29.6551
RightLeg  62.4413 -9.51005 -19.5118
RightFoot  0.808834 -0.0216089 0.254821
RightToes  -2.08645e-008 3.77894e-005 6.81332e-007
Spine  33.1048 -5.54324 0.189523
Spine1  -0.00361879 -12.0792 37.7058
HEad  -22.0042 13.9484 0.793542
LeftShoulder1  2.50606 -6.60935 -18.2065
LeftArm  67.4398 -81.2715 -92.3543
LeftForeArm  28.2515 -53.8238 -13.0547
LeftHand  -1.11529 -9.59644 9.00395
RightShoulder  4.62447 7.54142 35.9471
RightArm  -18.7783 -54.8851 23.7927
RightForeArm  48.2557 -6.22348 4.72222
RightHand  -0.395005 11.1851 -3.17881
LeftUpLeg  2.21634 -7.20685 26.9549
LeftLeg  25.8665 19.2526 10.1867
LeftFoot  -9.27138 -0.151905 11.4615
LeftToes  1.24767e-006 1.47042e-008 1.32732e-009
612
root  1.32807 39.2651 43.5014 -41.3445 19.9929 -45.2218
RightUpLeg  -57.3327 -24.3316 -32.0173
RightLeg  21.5407 -16.4541 -9.61129
RightFoot  4.25635 -0.104887 0.939192
RightToes  -2.08645e-008 3.77894e-005 6.81332e-007
Spine  33.4305 -5.0663 -0.368055
Spine1  0.653644 -11.3629 37.6156
HEad  -23.3771 11.9764 1.2009
LeftShoulder1  2.25733 -6.29738 -16.3187
LeftArm  96.2148 -69.3212 -133.35
LeftForeArm  31.6292 -50.053 -10.9353
LeftHand  -1.22987 -9.70073 9.82399
RightShoulder  4.7924 7.67056 36.9412
RightArm  -26.0634 -56.2647 27.6765
RightForeArm  50.7753 -5.7079 2.05602
RightHand  -0.293262 11.4977 -2.43448
LeftUpLeg  2.17567 -7.19664 29.1649
LeftLeg  26.869 20.1768 11.0409
LeftFoot  -13.2705 0.273758 11.8646
LeftToes  1.24767e-006 1.47042e-008 1.32732e-009
613
root  0.331054 39.2944 44.5918 -47.2622 22.0103 -48.5422
RightUpLeg  -54.9699 -26.5633 -25.4398
RightLeg  -5.50752 -4.2547 -6.96351
RightFoot  0.492805 -0.803372 8.31811
RightToes  -2.08645e-008 3.77894e-005 6.81332e-007
Spine  33.0852 -5.54429 -1.40456
Spine1  2.28484 -10.7142 37.8028
HEad  -25.2094 10.6998 1.43323
LeftShoulder1  2.49531 -7.20833 -16.5899
LeftArm  90.8783 -61.9384 -133.325
LeftForeArm  36.0301 -54.0587 -12.5539
LeftHand  -1.15382 -9.14881 9.56356
RightShoulder  4.84139 7.7016 37.2499
RightArm  -32.4178 -51.8705 31.0549
RightForeArm  56.6709 -4.98739 -1.14109
RightHand  -0.423892 10.6933 -3.47487
LeftUpLeg  2.7201 -8.84659 33.9341
LeftLeg  29.371 14.2968 8.85802
LeftFoot  -15.103 0.390364 9.04252
LeftToes  1.24767e-006 1.47042e-008 1.32732e-009
